<svg width="25" height="25" viewBox="0 0 25 25" fill="none" xmlns="http://www.w3.org/2000/svg">
<path d="M18.7491 0.00520167L15.5072 0C11.8651 0 9.51132 2.41487 9.51132 6.15253V8.98926H6.25173C5.97006 8.98926 5.74197 9.21762 5.74197 9.49929V13.6094C5.74197 13.8911 5.97032 14.1191 6.25173 14.1191H9.51132V24.4902C9.51132 24.7719 9.73941 25 10.0211 25H14.2739C14.5556 25 14.7837 24.7716 14.7837 24.4902V14.1191H18.5949C18.8766 14.1191 19.1047 13.8911 19.1047 13.6094L19.1062 9.49929C19.1062 9.36404 19.0524 9.23452 18.9569 9.13881C18.8615 9.0431 18.7314 8.98926 18.5962 8.98926H14.7837V6.58453C14.7837 5.42872 15.0591 4.84197 16.5647 4.84197L18.7486 4.84119C19.03 4.84119 19.2581 4.61284 19.2581 4.33143V0.514965C19.2581 0.233815 19.0303 0.00572184 18.7491 0.00520167Z" fill="#E0E0E0"/>
</svg>
